<svg viewBox="0 0 480 300" xmlns="http://www.w3.org/2000/svg" role="img" aria-label="Illustration representing an 80-day cybersecurity content series">
  <defs>
    <linearGradient id="g2" x1="0" y1="0" x2="1" y2="1">
      <stop offset="0" stop-color="#16243F"/>
      <stop offset="1" stop-color="#0E1B32"/>
    </linearGradient>
  </defs>
  <rect width="480" height="300" fill="url(#g2)"/>
  <g stroke="#29395C" opacity="0.6">
    <circle cx="240" cy="150" r="90" fill="none"/>
    <circle cx="240" cy="150" r="60" fill="none"/>
  </g>
  <!-- calendar/grid of posts -->
  <g transform="translate(150,90)">
    <g fill="#1F2E4F" stroke="#3C4E76">
      <rect x="0" y="0" width="46" height="46" rx="6"/>
      <rect x="58" y="0" width="46" height="46" rx="6"/>
      <rect x="116" y="0" width="46" height="46" rx="6"/>
      <rect x="174" y="0" width="46" height="46" rx="6"/>
      <rect x="0" y="58" width="46" height="46" rx="6"/>
      <rect x="116" y="58" width="46" height="46" rx="6"/>
      <rect x="174" y="58" width="46" height="46" rx="6"/>
      <rect x="0" y="116" width="46" height="46" rx="6"/>
      <rect x="58" y="116" width="46" height="46" rx="6"/>
      <rect x="174" y="116" width="46" height="46" rx="6"/>
    </g>
    <rect x="58" y="58" width="46" height="46" rx="6" fill="#C89B3C"/>
  </g>
  <text x="240" y="272" text-anchor="middle" font-family="IBM Plex Mono, monospace" font-size="13" fill="#8891A2" letter-spacing="2">80-DAY CONTENT SERIES</text>
</svg>
