<svg viewBox="0 0 480 300" xmlns="http://www.w3.org/2000/svg" role="img" aria-label="Illustration representing the All Angels Book Club literacy initiative">
  <defs>
    <linearGradient id="g3" x1="0" y1="0" x2="1" y2="1">
      <stop offset="0" stop-color="#16243F"/>
      <stop offset="1" stop-color="#0E1B32"/>
    </linearGradient>
  </defs>
  <rect width="480" height="300" fill="url(#g3)"/>
  <g opacity="0.5" stroke="#29395C">
    <line x1="0" y1="230" x2="480" y2="230"/>
  </g>
  <!-- open book -->
  <g transform="translate(240,150)">
    <path d="M0,-50 C-40,-66 -95,-58 -95,-58 V56 C-95,56 -40,48 0,64 Z" fill="#1F2E4F" stroke="#3C4E76"/>
    <path d="M0,-50 C40,-66 95,-58 95,-58 V56 C95,56 40,48 0,64 Z" fill="#1F2E4F" stroke="#3C4E76"/>
    <path d="M-70,-40 H-15 M-70,-20 H-15 M-70,0 H-15 M-70,20 H-30" stroke="#5B6478" stroke-width="3" stroke-linecap="round"/>
    <path d="M70,-40 H15 M70,-20 H15 M70,0 H15 M70,20 H30" stroke="#5B6478" stroke-width="3" stroke-linecap="round"/>
    <path d="M0,-50 V64" stroke="#C89B3C" stroke-width="3"/>
  </g>
  <g fill="#1F7A4D">
    <circle cx="150" cy="90" r="5"/>
    <circle cx="330" cy="100" r="5"/>
    <circle cx="120" cy="200" r="5"/>
    <circle cx="360" cy="190" r="5"/>
  </g>
  <text x="240" y="272" text-anchor="middle" font-family="IBM Plex Mono, monospace" font-size="13" fill="#8891A2" letter-spacing="2">ALL ANGELS BOOK CLUB</text>
</svg>
